<?xml version="1.0" encoding="iso-8859-1"?>
<!-- Generator: Adobe Illustrator 16.0.0, SVG Export Plug-In . SVG Version: 6.00 Build 0)  -->
<!DOCTYPE svg PUBLIC "-//W3C//DTD SVG 1.1//EN" "http://www.w3.org/Graphics/SVG/1.1/DTD/svg11.dtd">
<svg xmlns="http://www.w3.org/2000/svg" xmlns:xlink="http://www.w3.org/1999/xlink" version="1.1" id="Capa_1" x="0px" y="0px" width="512px" height="512px" viewBox="0 0 33.635 33.634" style="enable-background:new 0 0 33.635 33.634;" xml:space="preserve">
<g>
	<g>
		<path d="M26.896,8.588h6.166c0.18,0,0.338-0.071,0.445-0.197c0.107-0.131,0.148-0.299,0.118-0.477l-0.228-1.277    c-0.062-0.34-0.373-0.662-0.71-0.733L32.474,5.86V3.585c0-2.115-1.117-2.916-2.496-2.916c-1.377,0-2.495,0.801-2.495,2.916V5.86    l-0.214,0.044c-0.339,0.071-0.65,0.396-0.71,0.733L26.33,7.915c-0.032,0.178,0.011,0.346,0.117,0.477    C26.557,8.518,26.715,8.588,26.896,8.588z M28.26,3.724c0.032-0.008,0.062,0,0.097,0.017V3.453h1.936l0.162-0.97v1.01H31.6V3.74    c0.032-0.017,0.063-0.024,0.097-0.017c0.105,0.031,0.153,0.227,0.104,0.435c-0.048,0.202-0.288,0.343-0.393,0.32    c-0.108,0.354-0.364,0.737-0.657,1.019c-0.04,0.037-0.08,0.072-0.121,0.107c-0.045,0.035-0.092,0.07-0.138,0.104l0.997,0.209    l-0.531,0.621L30.299,7.31l-0.167-0.771l-0.022-0.103l0.239-0.241l-0.302-0.302L29.98,5.825l-0.065,0.067l-0.303,0.302l0.24,0.241    L29.83,6.539L29.668,7.28l-0.652-0.742l-0.551-0.621l0.992-0.209c-0.048-0.029-0.094-0.063-0.139-0.104    c-0.041-0.032-0.081-0.069-0.12-0.105c-0.29-0.277-0.538-0.658-0.646-1.021c-0.104,0.024-0.346-0.116-0.395-0.32    C28.108,3.95,28.154,3.755,28.26,3.724z M26.814,6.684c0.042-0.235,0.273-0.476,0.508-0.524l0.16-0.033l0.69-0.146l0.493,0.559    l1.235,1.404c0.023,0.027,0.06,0.043,0.098,0.043H30c0.038,0,0.072-0.016,0.097-0.044l1.199-1.403l0.479-0.56l0.694,0.146    l0.161,0.034c0.232,0.05,0.467,0.289,0.507,0.524l0.229,1.277c0.019,0.101-0.004,0.193-0.062,0.26    c-0.058,0.07-0.146,0.107-0.246,0.107h-1.2V7.671c0-0.068-0.059-0.129-0.129-0.129c-0.072,0-0.131,0.061-0.131,0.129v0.656h-3.247    V7.671c0-0.068-0.06-0.129-0.131-0.129s-0.129,0.061-0.129,0.129v0.656h-1.199c-0.103,0-0.188-0.037-0.247-0.107    c-0.058-0.065-0.079-0.159-0.062-0.26L26.814,6.684z M20.496,13.27l-2.978,1.787l-0.41-0.683l2.979-1.787L20.496,13.27z     M32.688,30.281l-0.214-0.045v-2.273c0-2.111-1.117-2.916-2.496-2.916c-1.377,0-2.495,0.805-2.495,2.916v2.273l-0.214,0.045    c-0.339,0.074-0.65,0.396-0.71,0.734l-0.229,1.276c-0.032,0.178,0.011,0.346,0.117,0.476c0.106,0.129,0.268,0.198,0.446,0.198    h6.166c0.18,0,0.338-0.069,0.445-0.198c0.107-0.13,0.148-0.298,0.118-0.476l-0.228-1.276    C33.338,30.676,33.024,30.355,32.688,30.281z M28.26,28.101c0.032-0.009,0.062-0.002,0.097,0.018v-0.285h1.936l0.162-0.973v1.008    H31.6v0.25c0.032-0.02,0.063-0.025,0.097-0.018c0.105,0.032,0.153,0.229,0.104,0.434c-0.048,0.203-0.288,0.344-0.393,0.32    c-0.108,0.356-0.364,0.739-0.657,1.02c-0.04,0.037-0.08,0.072-0.121,0.107c-0.045,0.035-0.092,0.069-0.138,0.104l0.997,0.209    l-0.532,0.623l-0.659,0.771l-0.168-0.771l-0.022-0.104l0.239-0.24l-0.302-0.303l-0.066-0.066l-0.065,0.066l-0.303,0.303l0.24,0.24    l-0.023,0.104l-0.161,0.74l-0.653-0.74l-0.548-0.623l0.992-0.207c-0.048-0.029-0.094-0.064-0.139-0.104    c-0.041-0.035-0.081-0.068-0.12-0.107c-0.29-0.275-0.538-0.656-0.646-1.021c-0.104,0.026-0.346-0.115-0.395-0.32    S28.154,28.133,28.26,28.101z M33.308,32.601c-0.059,0.067-0.146,0.104-0.247,0.104h-1.2v-0.656c0-0.069-0.059-0.129-0.129-0.129    c-0.072,0-0.131,0.06-0.131,0.129v0.656h-3.247v-0.656c0-0.069-0.06-0.129-0.13-0.129c-0.072,0-0.13,0.06-0.13,0.129v0.656h-1.199    c-0.103,0-0.188-0.037-0.247-0.104c-0.058-0.07-0.079-0.162-0.062-0.263l0.229-1.278c0.042-0.234,0.273-0.476,0.508-0.523    l0.16-0.033l0.69-0.146l0.493,0.561l1.235,1.402c0.023,0.029,0.06,0.043,0.098,0.043H30c0.038,0,0.072-0.017,0.098-0.043    l1.198-1.402l0.479-0.562l0.694,0.147l0.161,0.032c0.232,0.05,0.467,0.289,0.508,0.523l0.228,1.277    C33.386,32.439,33.364,32.531,33.308,32.601z M32.688,18.092l-0.214-0.045v-2.276c0-2.112-1.117-2.913-2.496-2.913    c-1.377,0-2.495,0.801-2.495,2.913v2.276l-0.214,0.045c-0.339,0.072-0.65,0.396-0.71,0.733l-0.229,1.277    c-0.032,0.176,0.011,0.344,0.117,0.475c0.106,0.128,0.268,0.197,0.446,0.197h6.166c0.18,0,0.338-0.069,0.445-0.197    c0.107-0.131,0.148-0.299,0.118-0.475l-0.228-1.277C33.338,18.488,33.024,18.167,32.688,18.092z M28.26,15.914    c0.032-0.01,0.062-0.002,0.097,0.018v-0.286h1.936l0.162-0.972v1.009H31.6v0.249c0.032-0.021,0.063-0.026,0.097-0.018    c0.105,0.033,0.153,0.227,0.104,0.436c-0.048,0.201-0.288,0.341-0.393,0.32c-0.108,0.354-0.364,0.737-0.657,1.018    c-0.04,0.039-0.08,0.074-0.121,0.107c-0.045,0.035-0.092,0.07-0.138,0.104l0.997,0.211l-0.531,0.621L30.299,19.5l-0.167-0.771    l-0.022-0.104l0.239-0.242l-0.302-0.299l-0.068-0.068l-0.065,0.067l-0.303,0.299l0.24,0.242l-0.023,0.104l-0.161,0.737    l-0.652-0.737l-0.548-0.623l0.992-0.207c-0.048-0.031-0.094-0.066-0.139-0.104c-0.041-0.035-0.081-0.071-0.12-0.106    c-0.29-0.278-0.537-0.658-0.646-1.021c-0.104,0.022-0.346-0.117-0.395-0.32C28.108,16.137,28.154,15.946,28.26,15.914z     M33.308,20.414c-0.059,0.066-0.146,0.104-0.247,0.104h-1.2v-0.656c0-0.068-0.059-0.129-0.129-0.129    c-0.072,0-0.131,0.061-0.131,0.129v0.656h-3.247v-0.656c0-0.068-0.06-0.129-0.13-0.129c-0.072,0-0.13,0.061-0.13,0.129v0.656    h-1.199c-0.103,0-0.188-0.037-0.247-0.104c-0.058-0.07-0.079-0.162-0.062-0.264l0.229-1.275c0.042-0.236,0.273-0.479,0.508-0.525    l0.16-0.033l0.69-0.146l0.493,0.561l1.235,1.402c0.023,0.027,0.06,0.043,0.098,0.043H30c0.038,0,0.072-0.016,0.098-0.045    l1.198-1.4l0.479-0.562l0.694,0.147l0.161,0.033c0.232,0.049,0.467,0.289,0.508,0.525l0.228,1.275    C33.386,20.251,33.364,20.342,33.308,20.414z M13.871,13.524c-0.102,0-0.205,0.01-0.306,0.034c-0.035,0.006-0.066,0.022-0.1,0.032    l-0.001-0.01l-0.062,0.03l-0.308,0.154L1.69,19.474c-0.082-0.256-0.495-0.381-0.949-0.273c-0.466,0.109-0.796,0.416-0.733,0.687    l0.749,3.229c0.063,0.271,0.492,0.404,0.959,0.295c0.455-0.105,0.771-0.4,0.73-0.664l2.167,0.021l-0.03,0.703    c-0.011,0.254,0.078,0.498,0.251,0.688c0.174,0.188,0.41,0.296,0.664,0.308l4.071,0.173c0.015,0,0.031,0.002,0.045,0.002    c0.239,0,0.466-0.091,0.645-0.252c0.188-0.175,0.296-0.408,0.306-0.662l0.038-0.904l4.718,0.041    c0.03,0.004,0.06,0.016,0.089,0.016c0.039,0,0.076-0.008,0.114-0.012h0.09l-0.003-0.01c0.036-0.004,0.07-0.004,0.105-0.013    c1.35-0.313,1.964-2.646,1.371-5.207C16.538,15.262,15.148,13.523,13.871,13.524z M9.771,23.695    c-0.003,0.057-0.028,0.088-0.049,0.108c-0.02,0.017-0.063,0.041-0.117,0.041L5.53,23.672c-0.057-0.004-0.093-0.032-0.11-0.054    c-0.017-0.018-0.045-0.055-0.042-0.112l0.03-0.731l4.4,0.039L9.771,23.695z M15.539,22.07c-0.035,0.008-0.071,0.012-0.107,0.014    c-0.007,0-0.014,0.002-0.021,0.002c-0.788,0-1.958-1.406-2.442-3.496c-0.521-2.25,0.039-3.916,0.68-4.207    c0.032-0.015,0.063-0.041,0.095-0.049c0.043-0.011,0.085-0.014,0.129-0.014c0.788,0,1.957,1.403,2.441,3.499    C16.86,20.176,16.218,21.914,15.539,22.07z M21.596,16.553l0.195,0.771l-3.369,0.854l-0.194-0.771L21.596,16.553z M18.388,20.568    l3.403,0.699l-0.161,0.778l-3.401-0.698L18.388,20.568z" fill="#A5C3E8"/>
	</g>
</g>
<g>
</g>
<g>
</g>
<g>
</g>
<g>
</g>
<g>
</g>
<g>
</g>
<g>
</g>
<g>
</g>
<g>
</g>
<g>
</g>
<g>
</g>
<g>
</g>
<g>
</g>
<g>
</g>
<g>
</g>
</svg>
