<?xml version="1.0" encoding="iso-8859-1"?>
<!-- Generator: Adobe Illustrator 19.0.0, SVG Export Plug-In . SVG Version: 6.00 Build 0)  -->
<svg version="1.1" id="Layer_1" xmlns="http://www.w3.org/2000/svg" xmlns:xlink="http://www.w3.org/1999/xlink" x="0px" y="0px"
	 viewBox="0 0 512 512" style="enable-background:new 0 0 512 512;" xml:space="preserve">
<circle style="fill:#1F84CE;" cx="161.812" cy="161.844" r="153.811"/>
<path style="fill:#89BBE4;" d="M315.413,153.84h-55.271c-1.325-30.419-10.153-59.562-25.15-85.098
	c9.402-7.122,17.786-15.663,24.857-25.418c-4.106-3.4-8.393-6.584-12.841-9.55c-5.928,8.207-12.926,15.427-20.761,21.499
	c-12.798-18-28.874-33.759-47.662-46.328c-5.51-0.597-11.104-0.914-16.774-0.914s-11.264,0.316-16.775,0.914
	c-18.744,12.54-34.788,28.255-47.573,46.203c-7.824-6.068-14.824-13.267-20.744-21.444c-4.452,2.963-8.745,6.144-12.854,9.541
	c7.061,9.724,15.45,18.241,24.84,25.361c-15.046,25.568-23.898,54.76-25.226,85.232H8.207c-0.135,2.649-0.206,5.317-0.206,8.001
	c0,2.684,0.07,5.351,0.206,8.001h55.271c1.327,30.471,10.18,59.664,25.226,85.232c-9.39,7.119-17.778,15.637-24.84,25.361
	c4.109,3.397,8.402,6.579,12.854,9.541c5.921-8.177,12.92-15.376,20.744-21.444c12.783,17.948,28.828,33.663,47.573,46.202
	c5.511,0.598,11.105,0.914,16.775,0.914c5.669,0,11.265-0.317,16.775-0.914c18.786-12.569,34.863-28.328,47.661-46.328
	c7.835,6.072,14.833,13.292,20.761,21.499c4.449-2.965,8.736-6.15,12.841-9.55c-7.072-9.756-15.457-18.296-24.858-25.419
	c14.998-25.537,23.825-54.679,25.15-85.098h55.271c0.137-2.65,0.205-5.317,0.205-8.001
	C315.618,159.157,315.55,156.489,315.413,153.84z M153.81,301.356c-16.908-11.332-31.404-25.491-42.998-41.652
	c13.058-7.252,27.686-11.718,42.998-12.888V301.356z M153.81,230.767c-18.463,1.223-36.081,6.622-51.713,15.489
	c-13.374-22.981-21.294-49.124-22.597-76.413h74.31V230.767z M153.81,153.84H79.499c1.304-27.291,9.222-53.434,22.597-76.414
	c15.631,8.868,33.251,14.267,51.713,15.49v60.924H153.81z M153.81,76.865c-15.313-1.169-29.941-5.634-42.998-12.887
	c11.592-16.161,26.091-30.321,42.998-41.652V76.865z M169.812,22.326c16.94,11.354,31.461,25.547,43.064,41.747
	c-13.048,7.223-27.679,11.669-43.064,12.81V22.326z M169.812,301.356v-54.557c15.384,1.141,30.014,5.587,43.064,12.81
	C201.272,275.809,186.752,290.001,169.812,301.356z M221.597,246.127c-15.614-8.829-33.24-14.176-51.785-15.367v-60.919h74.31
	C242.821,197.082,234.927,223.178,221.597,246.127z M169.812,153.84V92.922c18.544-1.193,36.171-6.538,51.785-15.368
	c13.331,22.95,21.224,49.046,22.525,76.286H169.812z"/>
<path style="fill:#54B8AC;" d="M466.682,503.968c-9.556,0-19.111-3.645-26.402-10.937L326.598,379.348
	c-14.581-14.581-14.581-38.222,0-52.803c14.583-14.582,38.222-14.581,52.804,0l113.682,113.684
	c14.581,14.581,14.581,38.222,0,52.803C485.794,500.321,476.237,503.968,466.682,503.968z"/>
<path style="opacity:0.3;fill:#145587;enable-background:new    ;" d="M379.402,326.544c-14.582-14.581-38.221-14.582-52.804,0
	c-14.581,14.581-14.581,38.222,0,52.803l33.025,33.024c21.526-13.14,39.661-31.284,52.791-52.816L379.402,326.544z"/>
<circle style="fill:#384148;" cx="277.4" cy="277.4" r="134.854"/>
<circle style="fill:#FFFFFF;" cx="277.4" cy="277.4" r="93.964"/>
<path style="opacity:0.15;fill:#145587;enable-background:new    ;" d="M277.401,183.44c-51.896,0-93.965,42.069-93.965,93.965
	c0,2.938,0.143,5.843,0.406,8.711c4.396-47.81,44.603-85.252,93.558-85.252c48.958,0,89.163,37.443,93.559,85.252
	c0.264-2.869,0.405-5.775,0.405-8.712C371.366,225.509,329.298,183.44,277.401,183.44z"/>
<path style="fill:#F9C526;" d="M493.085,440.228l-21.42-21.42l-52.803,52.803l21.419,21.42c7.292,7.292,16.846,10.937,26.402,10.937
	c9.554,0,19.112-3.646,26.402-10.936C507.666,478.45,507.666,454.809,493.085,440.228z"/>
<path d="M277.401,175.439c-56.224,0-101.966,45.741-101.966,101.966s45.742,101.966,101.966,101.966s101.966-45.741,101.966-101.966
	S333.625,175.439,277.401,175.439z M277.401,363.368c-47.401,0-85.964-38.563-85.964-85.964c0-47.4,38.563-85.964,85.964-85.964
	s85.964,38.563,85.964,85.964S324.802,363.368,277.401,363.368z M498.743,434.571l-93.486-93.486
	c9.594-19.184,15.003-40.81,15.003-63.679c0-63.064-41.078-116.708-97.881-135.599c-4.698-38.011-22.718-73.051-51.129-99.152
	c-29.918-27.486-68.785-42.624-109.44-42.624C72.588,0.031,0,72.619,0,161.841c0,40.661,15.141,79.533,42.636,109.454
	c26.109,28.413,61.158,46.43,99.178,51.121c18.899,56.787,72.535,97.849,135.588,97.849c22.899,0,44.553-5.425,63.756-15.042
	l93.464,93.466c8.563,8.564,19.949,13.281,32.061,13.281c12.109,0,23.494-4.715,32.061-13.28
	C516.419,481.012,516.419,452.248,498.743,434.571z M137.341,305.595c-31.759-5.368-60.875-21.134-82.922-45.128
	c-24.773-26.96-38.417-61.986-38.417-98.627c0-80.398,65.409-145.808,145.809-145.808c36.635,0,71.657,13.639,98.614,38.405
	c23.991,22.041,39.761,51.149,45.134,82.9c-9.106-1.827-18.521-2.793-28.158-2.793c-78.774,0-142.859,64.087-142.859,142.859
	C134.542,287.052,135.508,296.479,137.341,305.595z M277.401,404.263c-69.949,0-126.857-56.908-126.857-126.859
	c0-69.949,56.908-126.857,126.857-126.857s126.857,56.908,126.857,126.857C404.259,347.354,347.351,404.263,277.401,404.263z
	 M487.427,487.374c-5.542,5.541-12.91,8.593-20.745,8.593c-7.837,0-15.204-3.052-20.744-8.593l-90.419-90.42
	c16.513-10.828,30.658-24.979,41.476-41.5l90.43,90.432C498.866,457.323,498.866,475.936,487.427,487.374z"/>
<g>
</g>
<g>
</g>
<g>
</g>
<g>
</g>
<g>
</g>
<g>
</g>
<g>
</g>
<g>
</g>
<g>
</g>
<g>
</g>
<g>
</g>
<g>
</g>
<g>
</g>
<g>
</g>
<g>
</g>
</svg>
